<svg xmlns="http://www.w3.org/2000/svg" width="1028" height="897" viewBox="0 0 4478693 3908669" shape-rendering="geometricPrecision" text-rendering="geometricPrecision" image-rendering="optimizeQuality" fill-rule="evenodd" clip-rule="evenodd"><defs><style><![CDATA[
    .fil0 {fill:none}
    .fil10 {fill:#438036}
    .fil5 {fill:#59B5BD}
    .fil8 {fill:#6FB061}
    .fil7 {fill:#7DE6F0}
    .fil4 {fill:#8A4484}
    .fil9 {fill:#94D985}
    .fil6 {fill:#B54E31}
    .fil2 {fill:#C27ABC}
    .fil3 {fill:#FA8564}
    .fil1 {fill:black;fill-rule:nonzero}
   ]]></style></defs><g id="Layer_x0020_1"><g id="_2733689220864"><path class="fil0" d="M2 0h4478690v3908669H2z"/><path class="fil1" d="M583592 3608511l-250970-573643h85189l177456 406189 181207-406189h83938l-255973 573643zm633574-4169v-569474h342685v72537h-261810v172596h254305v73371h-254305v177594h270149v73376zm1251544-135072v91854c-33350 17373-67399 30570-102000 39604-34600 9034-68928 13620-102834 13620-32655 0-63786-4308-93383-12786-29598-8617-57532-21264-83933-38075-42245-27657-75182-63091-98665-106031-23487-43078-35300-89770-35300-140353 0-38214 7782-75321 23209-111311 15427-35852 37519-67400 66010-94218 30431-28763 64476-50305 102134-64481 37802-14309 79629-21397 125487-21397 32099 0 63786 3613 95329 10979 31404 7361 64481 18896 98943 34740v88519c-36129-19596-70040-34045-101861-43495-31682-9312-62535-14037-92411-14037-66565 0-121457 20708-164952 62118-43495 41411-65171 93245-65171 155641 0 61701 21398 113113 64198 154529 42800 41410 96441 62113 161061 62113 33211 0 66705-5559 100610-16672 34045-11119 68512-28074 103529-50861zm560198 135072v-495269h-209282v-74205h499439v74205h-209282v495269zm806164 0v-285015l-220122-284459h96580l166203 216087 170234-216087h98109l-228461 288628v280846z"/><path class="fil2" d="M3187719 1034609l293812 172437v717176l-948371 547546-293811-169632v-717176z"/><path class="fil3" d="M1290979 1376682v717172l948370 547540 293811-169631v-717172l-948370-547540z"/><path class="fil4" d="M3481531 1207046v717176l-948371 547541v-717172z"/><path class="fil5" d="M997167 489869v717182l948371 547540 293811-169631V867778l-948370-547540z"/><path class="fil6" d="M2533160 1754591l-293811 169631v717177l293811-169631z"/><path class="fil7" d="M1290979 320238L997167 489869l948371 547546 293811-169637z"/><path class="fil8" d="M1945538 1037415l948365-547541 293816 169632v717176l-948370 547540-293811-169631z"/><path class="fil9" d="M2893903 489874l293816 169632-948370 547540-293811-169631z"/><path class="fil10" d="M3187719 659506v717176l-948370 547540v-717176z"/></g></g></svg>